<?xml version="1.0" encoding="utf-8"?>
<!-- Generator: Adobe Illustrator 16.0.0, SVG Export Plug-In . SVG Version: 6.00 Build 0)  -->
<!DOCTYPE svg PUBLIC "-//W3C//DTD SVG 1.1//EN" "http://www.w3.org/Graphics/SVG/1.1/DTD/svg11.dtd">
<svg version="1.1" id="Layer_1" xmlns="http://www.w3.org/2000/svg" xmlns:xlink="http://www.w3.org/1999/xlink" x="0px" y="0px"
	 width="428.729px" height="729.5px" viewBox="0 0 428.729 729.5" enable-background="new 0 0 428.729 729.5" xml:space="preserve">
<g id="_x31_" display="none">
	<g display="inline">
		<g>
			<g>
				<polygon fill="#B3B3B3" points="258.031,662.61 257.918,723.473 214.875,728.756 214.989,667.893 				"/>
				<polygon fill="#3B3A3B" points="214.39,729.5 170.214,724.077 170.331,661.844 214.507,667.271 				"/>
				<polygon fill="#606062" points="214.507,667.271 170.331,661.844 214.339,656.442 258.517,661.868 				"/>
			</g>
			<rect x="213.266" y="361.875" fill="#070708" width="2.198" height="298.903"/>
			<g>
				<path fill="#EF8640" stroke="#262424" stroke-miterlimit="10" d="M230.558,518.948c5.736,18.672,5.268,54.313-16.239,61.147
					c-24.325,7.73-17.835-46.492-15.17-57.772c3.201-13.549,12.401-50.691,15.17-50.438
					C218.315,472.254,226.077,504.37,230.558,518.948z"/>
			</g>
		</g>
		<g>
			<path fill="#FFFFFF" stroke="#000000" stroke-miterlimit="10" d="M304.912,249.742c-16.38,28.155-39.072,53.121-58.039,80.161
				c-7.423,10.583-20.642,38.792-32.508,38.795c-13.374,0.002-29.701-35.036-38.277-46.919
				c-17.401-24.11-37.512-46.675-52.27-72.038c-39.151-67.282,6.018-167.914,90.548-167.913
				C298.911,81.829,344.049,182.471,304.912,249.742z"/>
		</g>
	</g>
</g>
<g id="_x32_" display="none">
	<g display="inline">
		<g>
			<path fill="#FFFFFF" stroke="#000000" stroke-miterlimit="10" d="M345.745,217.138c-22.894,33.772-53.749,62.443-80.151,94.123
				c-11.47,13.763-32.553,52.989-51.228,52.991c-18.676,0.002-39.761-39.229-51.23-52.991
				c-26.404-31.678-57.257-60.354-80.15-94.124C17.428,120.435,113.567,9.382,214.363,9.383
				C315.165,9.385,411.298,120.427,345.745,217.138z"/>
		</g>
		<g>
			<g>
				<polygon fill="#B3B3B3" points="258.032,662.612 257.919,723.473 214.875,728.758 214.989,667.896 				"/>
				<polygon fill="#3B3A3B" points="214.39,729.5 170.214,724.077 170.331,661.844 214.507,667.271 				"/>
				<polygon fill="#606062" points="214.507,667.271 170.331,661.844 214.338,656.444 258.517,661.87 				"/>
			</g>
			<rect x="213.266" y="361.875" fill="#070708" width="2.197" height="298.901"/>
			<g>
				<path fill="#EF8640" stroke="#262424" stroke-miterlimit="10" d="M230.558,518.95c5.736,18.678,5.267,54.313-16.24,61.146
					c-24.318,7.728-17.836-46.485-15.17-57.772c3.201-13.549,12.399-50.689,15.17-50.437
					C218.317,472.256,226.079,504.374,230.558,518.95z"/>
			</g>
		</g>
	</g>
</g>
<g id="_x33_" display="none">
	<g display="inline">
		<circle fill="#FFFFFF" stroke="#000000" stroke-miterlimit="10" cx="214.365" cy="181.568" r="180.066"/>
		<g>
			<g>
				<polygon fill="#B3B3B3" points="258.031,662.612 257.918,723.473 214.874,728.758 214.987,667.896 				"/>
				<polygon fill="#3B3A3B" points="214.39,729.5 170.214,724.077 170.33,661.844 214.507,667.271 				"/>
				<polygon fill="#606062" points="214.507,667.271 170.33,661.844 214.338,656.444 258.517,661.87 				"/>
			</g>
			<rect x="213.266" y="361.875" fill="#070708" width="2.197" height="298.901"/>
			<g>
				<path fill="#EF8640" stroke="#262424" stroke-miterlimit="10" d="M230.558,518.95c5.736,18.666,5.267,54.312-16.24,61.146
					c-24.316,7.729-17.835-46.487-15.169-57.772c3.201-13.547,12.398-50.689,15.169-50.437
					C218.317,472.256,226.08,504.377,230.558,518.95z"/>
			</g>
		</g>
	</g>
</g>
<g id="Layer_4">
	<g>
		<g>
			<g>
				<polygon fill="#B3B3B3" points="257.995,662.61 257.882,723.473 214.837,728.756 214.952,667.893 				"/>
				<polygon fill="#3B3A3B" points="214.353,729.5 170.177,724.077 170.293,661.844 214.47,667.271 				"/>
				<polygon fill="#606062" points="214.47,667.271 170.293,661.844 214.301,656.442 258.479,661.868 				"/>
			</g>
			<rect x="213.229" y="361.875" fill="#070708" width="2.197" height="298.903"/>
			<g>
				<path fill="#EF8640" stroke="#262424" stroke-miterlimit="10" d="M230.521,518.948c5.737,18.662,5.271,54.312-16.24,61.147
					c-24.324,7.73-17.835-46.492-15.17-57.772c3.201-13.551,12.401-50.691,15.17-50.438
					C218.28,472.254,226.04,504.374,230.521,518.948z"/>
			</g>
		</g>
		<g>
			<g>
				<polygon fill="#FFFFFF" points="325.931,317.038 427.729,290.375 347.343,227.889 389.839,178.259 323.808,174.672 
					329.64,74.23 246.53,130.587 210.075,70.926 184.845,136.281 93.762,100.727 120.329,192.518 52.445,208.725 109.849,255.39 
					46.071,333.247 139.98,336.293 134.789,401.223 195.648,361.862 252.474,450.458 285.706,358.446 343.31,382.395 				"/>
				<path fill="#ED1F24" d="M325.51,316.792l51.004-14.295l50.729-13.987l-0.695,3.388l-81.183-61.461l-2.658-2.013l2.188-2.633
					c6.961-8.377,14.021-16.668,21.025-25.006l21.055-24.98l2.661,6.222l-66.059-3.072l-4.269-0.198l0.22-4.333l5.05-100.488
					l7.91,4.492c-13.79,9.484-27.531,19.039-41.36,28.465l-41.441,28.345l-4.845,3.313l-3.104-5.034l-36.693-59.515l10.536-0.951
					l-12.483,32.728l-12.568,32.695l-2.19,5.697l-5.705-2.218l-91.13-35.433l8.235-7.522l13.344,45.878l13.256,45.904l1.822,6.309
					l-6.377,1.514L53.878,214.72l2.456-10.775l57.342,46.741l4.735,3.86l-3.869,4.689l-64.056,77.628l-4.229-9.317l46.948,1.71
					l23.475,0.855l23.473,0.892l5.589,0.212l-0.483,5.501l-5.694,64.893l-7.377-4.404l61.164-38.892l3.61-2.296l2.247,3.563
					l56.142,89.035l-6.088,0.684c2.815-7.649,5.67-15.289,8.545-22.918l8.602-22.896l17.197-45.794l0.834-2.219l2.125,0.915
					l57.301,24.676l-1.948,1.705l-4.121-16.398l-4.065-16.413L325.51,316.792z M326.359,317.287l17.313,65.008l0.197,0.74
					l-0.708-0.293l-57.613-23.924l0.535-0.236l-33.192,92.025l-0.308,0.846l-0.485-0.758l-56.863-88.571l0.676,0.146l-60.843,39.39
					l-0.882,0.57l0.083-1.05l5.165-64.932l0.526,0.588l-93.911-3.008l-1.183-0.038l0.75-0.916l63.746-77.883l0.089,0.882
					L52.03,209.233l-1.033-0.839l1.294-0.31l67.877-16.235l-0.5,0.857l-26.556-91.794l-0.38-1.313l1.273,0.498l91.068,35.592
					l-0.822,0.362l25.257-65.344l0.442-1.143l0.638,1.045l36.431,59.676l-0.812-0.176l83.133-56.322l0.896-0.606l-0.063,1.079
					l-5.874,100.439l-0.464-0.519l66.03,3.614l0.938,0.051l-0.609,0.713l-42.519,49.612l-0.062-0.628l80.359,62.52l0.63,0.49
					l-0.771,0.202L326.359,317.287z"/>
			</g>
			
				<text transform="matrix(0.9545 -0.2982 0.2982 0.9545 156.4814 319.4004)" fill="#ED1C24" font-family="'Impact'" font-size="103.6159">POP!</text>
		</g>
	</g>
</g>
<g id="Layer_5" display="none">
	<g display="inline">
		<g>
			<g>
				<polygon fill="#B3B3B3" points="255.829,662.61 255.716,723.473 212.671,728.756 212.786,667.893 				"/>
				<polygon fill="#3B3A3B" points="212.187,729.5 168.011,724.077 168.128,661.844 212.304,667.271 				"/>
				<polygon fill="#606062" points="212.304,667.271 168.128,661.844 212.136,656.442 256.313,661.868 				"/>
			</g>
			<rect x="211.063" y="427.557" fill="#070708" width="2.197" height="233.222"/>
		</g>
		<line fill="none" stroke="#000000" stroke-miterlimit="10" x1="2.855" y1="264.882" x2="213.458" y2="431.557"/>
		<line fill="none" stroke="#000000" stroke-miterlimit="10" x1="213.458" y1="431.557" x2="425.899" y2="271.266"/>
		<line fill="none" stroke="#000000" stroke-miterlimit="10" x1="212.466" y1="428.28" x2="339.552" y2="271.484"/>
		<line fill="none" stroke="#000000" stroke-miterlimit="10" x1="212.466" y1="428.28" x2="254.315" y2="269.371"/>
		<line fill="none" stroke="#000000" stroke-miterlimit="10" x1="212.466" y1="428.28" x2="170.378" y2="266.533"/>
		<line fill="none" stroke="#000000" stroke-miterlimit="10" x1="213.458" y1="431.557" x2="87.029" y2="268.184"/>
		<path fill="#EF8640" stroke="#262424" stroke-miterlimit="10" d="M43.674,240.981c19.168,0,35.628,12.951,42.802,31.459
			c7.171-18.508,23.633-31.459,42.801-31.459c18.123,0,33.82,11.579,41.541,28.482c7.723-16.903,23.42-28.482,41.541-28.482
			c18.447,0,34.391,11.992,41.957,29.39c7.566-17.398,23.512-29.39,41.957-29.39c19.773,0,36.66,13.783,43.447,33.229
			c6.785-19.446,23.672-33.229,43.447-33.229c19.107,0,35.523,12.87,42.732,31.285c-1.713-95.562-95.785-172.597-211.604-172.597
			C100.214,99.668,7.23,174.41,2.83,267.977C10.777,251.883,26.086,240.981,43.674,240.981z"/>
		<path fill="#FFFFFF" stroke="#000000" stroke-miterlimit="10" d="M273.054,552.295l8.418,9.217l-9.062-13.02l-3.984-23.426
			l8.234,0.491L264.2,510.723c-4.902-14.278-13.773-34.379-24.072-31.145c-3.605,1.131-3.783,5.811-1.926,12.348l-14.941-8.264
			l4.406,25.604l14.252-6.062l2.168,3.477c2.701,5.654,5.936,11.662,9.264,17.488l-6.336-0.377l18.027,19.736
			c5.084,8.028,8.816,13.502,8.816,13.502L273.054,552.295z"/>
		
			<line fill="none" stroke="#000000" stroke-width="2" stroke-miterlimit="10" x1="224.823" y1="490.231" x2="216.394" y2="430.989"/>
	</g>
</g>
</svg>
