<?xml version="1.0" encoding="utf-8"?>
<!-- Generator: Adobe Illustrator 16.0.0, SVG Export Plug-In . SVG Version: 6.00 Build 0)  -->
<!DOCTYPE svg PUBLIC "-//W3C//DTD SVG 1.1//EN" "http://www.w3.org/Graphics/SVG/1.1/DTD/svg11.dtd">
<svg version="1.1" id="Layer_1" xmlns="http://www.w3.org/2000/svg" xmlns:xlink="http://www.w3.org/1999/xlink" x="0px" y="0px"
	 width="612px" height="582.93px" viewBox="0 28.035 612 582.93" enable-background="new 0 28.035 612 582.93" xml:space="preserve"
	>
<g>
	<path fill="#FFFFFF" d="M587.52,537.776v-12.24v-48.96H24.48v48.96v12.24v42.84h563.04V537.776z M36.72,488.816h538.56v36.72
		h-18.36H55.08H36.72V488.816z M67.32,537.776h477.36v12.239H67.32V537.776z M575.28,568.376H36.72v-30.6h18.36v24.479h501.84
		v-24.479h18.36V568.376z"/>
	<path fill="#FFFFFF" d="M611.902,391.422l-12.24-97.92l-0.098-0.777h0.195V84.645c0-20.196-16.523-36.72-36.72-36.72H393.057
		c0.067-0.508,0.153-1.003,0.153-1.53v-6.12c0-6.732-5.502-12.24-12.24-12.24H231.03c-6.732,0-12.24,5.508-12.24,12.24v6.12
		c0,0.526,0.092,1.022,0.153,1.53H48.96c-20.196,0-36.72,16.524-36.72,36.72v208.08h0.189l-0.098,0.777l-12.24,97.92L0,392.175
		v0.765v6.12v12.24v36.72v3.825v8.415v113.985c0,20.196,16.524,36.72,36.72,36.72h538.56c20.195,0,36.72-16.523,36.72-36.72V460.26
		v-8.415v-3.825V411.3v-12.24v-6.12v-0.765L611.902,391.422z M231.03,40.275h149.94v6.12H231.03V40.275z M281.52,265.038v15.447
		h-6.12V263.3C277.407,263.961,279.458,264.506,281.52,265.038z M299.88,295.02v104.04h-6.12V295.02H299.88z M299.88,411.3v36.72
		h-6.12V411.3H299.88z M312.12,411.3h6.12v36.72h-6.12V411.3z M312.12,399.06V295.02h6.12v104.04H312.12z M330.48,280.485v-15.447
		c2.062-0.532,4.118-1.077,6.119-1.732v17.185h-6.119V280.485z M318.24,280.485h-6.12v-12.24H306h-6.12v12.24h-6.12v-13.09
		c4.021,0.508,8.085,0.851,12.24,0.851s8.219-0.343,12.24-0.845V280.485z M281.52,295.02v104.04h-6.12V295.02H281.52z M281.52,411.3
		v36.72h-6.12V411.3H281.52z M330.48,448.02V411.3h6.119v36.72H330.48z M330.48,399.06V295.02h6.119v104.04H330.48z M348.84,280.485
		v-22.209c2.081-1.016,4.131-2.081,6.12-3.237v25.447H348.84z M306,256.005c-47.247,0-85.68-38.434-85.68-85.68
		c0-47.247,38.434-85.68,85.68-85.68c47.246,0,85.68,38.434,85.68,85.68C391.68,217.571,353.246,256.005,306,256.005z
		 M263.16,258.275v22.209h-6.12v-25.447C259.035,256.195,261.079,257.26,263.16,258.275z M263.16,295.02v104.04h-6.12V295.02H263.16
		z M263.16,411.3v36.72h-6.12V411.3H263.16z M348.84,448.02V411.3h6.12v36.72H348.84z M348.84,399.06V295.02h6.12v104.04H348.84z
		 M24.48,84.645c0-13.5,10.979-24.48,24.48-24.48h514.08c13.501,0,24.479,10.979,24.479,24.48v195.84H367.2v-33.789
		c22.368-17.95,36.72-45.465,36.72-76.371c0-54.077-43.838-97.92-97.92-97.92c-54.076,0-97.92,43.843-97.92,97.92
		c0,30.912,14.357,58.427,36.72,76.371v33.789H24.48V84.645z M12.24,392.94l12.24-97.92H244.8v104.04H12.24V392.94z M244.8,411.3
		v36.72H12.24V411.3H244.8z M599.76,574.245c0,13.501-10.979,24.479-24.479,24.479H36.72c-13.501,0-24.48-10.979-24.48-24.479
		v-110.16h587.52V574.245z M599.76,448.02H367.2V411.3h232.56V448.02z M367.2,399.06V295.02H587.52l12.24,97.92v6.12H367.2z"/>
	<path fill="#FFFFFF" d="M306,109.125c-33.794,0-61.2,27.405-61.2,61.2c0,33.801,27.406,61.2,61.2,61.2
		c33.795,0,61.2-27.399,61.2-61.2C367.2,136.53,339.795,109.125,306,109.125z M306,219.285c-26.995,0-48.96-21.965-48.96-48.96
		c0-26.996,21.965-48.96,48.96-48.96s48.96,21.964,48.96,48.96C354.96,197.32,332.995,219.285,306,219.285z"/>
	<path fill="#FFFFFF" d="M520.2,167.265c21.977,0,39.78-17.809,39.78-39.78c0-21.971-17.804-39.78-39.78-39.78
		c-21.978,0-39.78,17.809-39.78,39.78C480.42,149.456,498.223,167.265,520.2,167.265z M520.2,99.945
		c15.184,0,27.54,12.356,27.54,27.54c0,15.184-12.356,27.54-27.54,27.54s-27.54-12.356-27.54-27.54
		C492.66,112.301,505.017,99.945,520.2,99.945z"/>
	<path fill="#FFFFFF" d="M116.28,194.805c-20.281,0-36.72,16.45-36.72,36.72c0,20.282,16.438,36.726,36.72,36.726
		c20.282,0,36.72-16.444,36.72-36.726C153,211.255,136.562,194.805,116.28,194.805z M116.28,256.011
		c-13.5,0-24.48-10.985-24.48-24.486c0-13.5,10.979-24.48,24.48-24.48c13.501,0,24.48,10.979,24.48,24.48
		C140.76,245.026,129.781,256.011,116.28,256.011z"/>
	<path fill="#FFFFFF" d="M501.84,268.251c20.282,0,36.72-16.444,36.72-36.726c0-18.183-13.237-33.25-30.6-36.169v-5.141
		c0-3.384-2.742-6.12-6.12-6.12s-6.12,2.736-6.12,6.12v5.141c-17.362,2.925-30.6,17.986-30.6,36.169
		C465.12,251.807,481.559,268.251,501.84,268.251z M501.84,207.045c13.501,0,24.48,10.979,24.48,24.48
		c0,13.501-10.979,24.486-24.48,24.486s-24.479-10.985-24.479-24.486C477.36,218.024,488.339,207.045,501.84,207.045z"/>
	<path fill="#FFFFFF" d="M176.954,121.365H55.606c-7.02,0-12.767,5.74-12.767,12.772v35.655c0,7.02,5.747,12.772,12.767,12.772
		h121.341c7.02,0,12.766-5.747,12.766-12.772v-35.655C189.72,127.105,183.973,121.365,176.954,121.365z M177.48,169.792
		c0,0.263-0.263,0.533-0.526,0.533H55.606c-0.263,0-0.526-0.27-0.526-0.533v-35.655c0-0.27,0.263-0.533,0.526-0.533h121.341
		c0.263,0,0.526,0.263,0.526,0.533v35.655H177.48z"/>
	<path fill="#FFFFFF" d="M479.961,182.565h80.479c8.164,0,14.841-6.677,14.841-14.841V87.246c0-8.164-6.677-14.841-14.841-14.841
		h-80.479c-8.164,0-14.841,6.677-14.841,14.841v80.478C465.12,175.888,471.797,182.565,479.961,182.565z M477.36,87.246
		c0-1.408,1.187-2.601,2.601-2.601h80.479c1.407,0,2.601,1.187,2.601,2.601v80.478c0,1.408-1.188,2.601-2.601,2.601h-80.479
		c-1.407,0-2.601-1.188-2.601-2.601V87.246z"/>
	<path fill="#FFFFFF" d="M159.12,136.665c-8.452,0-15.3,6.848-15.3,15.3c0,8.452,6.849,15.3,15.3,15.3s15.3-6.848,15.3-15.3
		C174.42,143.513,167.572,136.665,159.12,136.665z M159.12,155.025c-1.689,0-3.06-1.377-3.06-3.06c0-1.683,1.371-3.06,3.06-3.06
		c1.689,0,3.06,1.377,3.06,3.06C162.18,153.648,160.809,155.025,159.12,155.025z"/>
	<path fill="#FFFFFF" d="M125.717,136.665c-8.452,0-15.3,6.848-15.3,15.3c0,8.452,6.848,15.3,15.3,15.3
		c8.452,0,15.3-6.848,15.3-15.3C141.017,143.513,134.163,136.665,125.717,136.665z M125.717,155.025c-1.689,0-3.06-1.377-3.06-3.06
		c0-1.683,1.371-3.06,3.06-3.06c1.689,0,3.06,1.377,3.06,3.06C128.777,153.648,127.4,155.025,125.717,155.025z"/>
	<path fill="#FFFFFF" d="M92.308,136.665c-8.452,0-15.3,6.848-15.3,15.3c0,8.452,6.849,15.3,15.3,15.3s15.3-6.848,15.3-15.3
		C107.608,143.513,100.76,136.665,92.308,136.665z M92.308,155.025c-1.689,0-3.06-1.377-3.06-3.06c0-1.683,1.371-3.06,3.06-3.06
		c1.689,0,3.06,1.377,3.06,3.06C95.368,153.648,93.997,155.025,92.308,155.025z"/>
	<path fill="#FFFFFF" d="M67.32,136.665c-3.378,0-6.12,2.735-6.12,6.12v18.36c0,3.384,2.742,6.12,6.12,6.12
		c3.378,0,6.12-2.736,6.12-6.12v-18.36C73.44,139.4,70.698,136.665,67.32,136.665z"/>
</g>
</svg>
