<?xml version="1.0" encoding="utf-8"?>
<!-- Generator: Adobe Illustrator 16.0.0, SVG Export Plug-In . SVG Version: 6.00 Build 0)  -->
<!DOCTYPE svg PUBLIC "-//W3C//DTD SVG 1.1//EN" "http://www.w3.org/Graphics/SVG/1.1/DTD/svg11.dtd">
<svg version="1.1" id="Layer_1" xmlns="http://www.w3.org/2000/svg" xmlns:xlink="http://www.w3.org/1999/xlink" x="0px" y="0px"
	 width="612px" height="481.172px" viewBox="0 78.911 612 481.172" enable-background="new 0 78.911 612 481.172"
	 xml:space="preserve">
<g>
	<path fill="#FFFFFF" d="M0,296.293h94.799l53.005-144.389l140.337,48.954L391.08,124.26c-0.894-3.115-1.389-6.396-1.389-9.792
		c0-19.639,15.918-35.557,35.569-35.557c19.639,0,35.569,15.918,35.569,35.557c0,19.645-15.931,35.563-35.569,35.563
		c-7.075,0-13.647-2.081-19.187-5.649l-113.624,84.56l-129.591-45.208l-50.545,137.651H0V296.293z"/>
	<rect x="103.569" y="450.462" fill="#FFFFFF" width="103.538" height="109.615"/>
	<rect x="238.515" y="356.257" fill="#FFFFFF" width="103.557" height="203.826"/>
	<rect x="373.473" y="262.027" fill="#FFFFFF" width="103.551" height="298.05"/>
	<rect x="508.432" y="167.822" fill="#FFFFFF" width="103.568" height="392.261"/>
</g>
</svg>
