<?xml version="1.0" encoding="utf-8"?>
<!-- Generator: Adobe Illustrator 16.0.0, SVG Export Plug-In . SVG Version: 6.00 Build 0)  -->
<!DOCTYPE svg PUBLIC "-//W3C//DTD SVG 1.1//EN" "http://www.w3.org/Graphics/SVG/1.1/DTD/svg11.dtd">
<svg version="1.1" id="Layer_1" xmlns="http://www.w3.org/2000/svg" xmlns:xlink="http://www.w3.org/1999/xlink" x="0px" y="0px"
	 width="1530px" height="343.596px" viewBox="0 0 1530 343.596" enable-background="new 0 0 1530 343.596" xml:space="preserve">
<path fill="#A87E51" d="M919.125,255.763c0,0,16.615-111.017,56.778-118.595c40.163-7.577,74.786-39.404,74.786-39.404
	s24.927-8.336,49.855,0c24.926,8.335,49.854,39.405,76.168,47.741c26.312,8.335,73.951,105.862,56.78,103.817
	C1152.517,239.675,919.125,255.763,919.125,255.763z"/>
<path fill="#C6985B" d="M965.576,218.727c0,0,130.284-59.883,202.148-55.027s145.528,11.892,165.349-6.306
	c19.82-18.198,175.471,77.034,193.389,78.745C1544.381,237.851,965.576,218.727,965.576,218.727z"/>
<path fill="#A87E51" d="M301.125,239.763c0,0,13.481-164.607,46.066-175.843s60.675-58.427,60.675-58.427s20.225-12.359,40.449,0
	s40.45,58.428,61.798,70.787s59.999,156.966,46.067,153.933C490.482,215.909,301.125,239.763,301.125,239.763z"/>
<path fill="#C6985B" d="M82.473,199.471c0,0,65.168-69.662,96.629-73.033s65.169-38.203,65.169-38.203s50.562-12.359,85.394,8.989
	s44.943,7.865,68.539,7.865s83.146,40.45,95.506,65.169s28.09,51.685,28.09,51.685L82.473,199.471z"/>
<path fill="#E8D277" d="M1551.977,209.65h-41.439c-6.262-10.844-16.115-18.685-30.982-9.48c-7.338,4.543-33.08,7.538-68.889,9.48
	H978.288c-45.812-4.814-98.515-14.812-133.202-16.98c-21.857-1.366-80.107,7.222-137.072,16.98H573.482v0.001h-81.031l-22.338-9.438
	c0,0-40.449-7.865-52.81-2.248s-52.809,0-52.809,0s-76.404-4.494-133.708-13.482s-96.629,15.73-96.629,15.73
	S85.843,174.37,51.012,177.74c-24.068,2.329-41.692,20.747-50.291,31.911h-22.698v57.304h0.5v76.641h1573v-76.68h0.453V209.65z"/>
</svg>
