<?xml version="1.0" encoding="utf-8"?>
<!-- Generator: Adobe Illustrator 16.0.0, SVG Export Plug-In . SVG Version: 6.00 Build 0)  -->
<!DOCTYPE svg PUBLIC "-//W3C//DTD SVG 1.1//EN" "http://www.w3.org/Graphics/SVG/1.1/DTD/svg11.dtd">
<svg version="1.1" id="Layer_1" xmlns="http://www.w3.org/2000/svg" xmlns:xlink="http://www.w3.org/1999/xlink" x="0px" y="0px"
	 width="460.227px" height="555.073px" viewBox="73.44 39.929 460.227 555.073"
	 enable-background="new 73.44 39.929 460.227 555.073" xml:space="preserve">
<g>
	<path fill="#FFFFFF" d="M373.062,70.128c19.076,3.739,101.084,39.982,123.906,137.59c0.336,1.408,1.591,2.362,2.98,2.362
		c0.227,0,0.459-0.024,0.697-0.08c1.646-0.386,2.668-2.032,2.283-3.678C479.367,105.551,394.091,68.011,374.244,64.119
		c-1.689-0.331-3.274,0.759-3.593,2.417C370.327,68.194,371.41,69.804,373.062,70.128z"/>
	<path fill="#FFFFFF" d="M530.084,262.021c7.252-8.023,3.2-39.052-9.48-71.623c-13.972-35.857-72.185-154.291-226.164-150.375
		C85.484,45.44,74.119,258.3,73.942,264.42H73.44l0,0h1.016c-0.024,0,0.189,2.913,0.71,3.513L300.957,533.7h-21.604l-24.278,8.476
		l0.141,0.129c-1.188,0.416-2.05,1.224-2.05,2.564l0.006,44.822c0,3.507,2.846,5.215,6.353,5.215h79.946
		c1.48,0,2.79,0.404,3.873-0.453c0.159-0.055,20.417-10.716,20.417-10.716c2.185-2.148,3.439-4.438,3.439-7.57v-41.225
		c0-1.641-1.512-1.242-1.512-1.242h-42.956l207.284-270.363C530.047,263.294,530.053,262.064,530.084,262.021z M417.335,256.501
		L315.198,523.7l-2.516-270.027c11.414-18.011,25.766-27.179,42.693-27.179C381.912,226.488,408.277,248.771,417.335,256.501z
		 M306.569,254.389l2.509,269.629l-110.074-267.83c16.353-18.819,32.552-28.048,49.486-28.048c19.021,0,36.225,11.585,51.396,21.806
		C302.175,251.488,304.378,252.957,306.569,254.389z M193.025,257.737l109.15,265.602L81.01,264.42
		c4.97-11.432,26.812-19.015,55.454-19.015C158.655,245.405,180.167,250.124,193.025,257.737z M423.498,257.511
		c19.076-14.603,37.234-22.038,53.954-22.038c26.523,0,42.197,18.935,46.353,24.706L322.598,521.484L423.498,257.511z M514.9,192.62
		c11.523,29.578,13.794,52.583,12.142,61.622c-6.499-8.237-22.938-24.89-49.59-24.89c-17.021,0-35.196,6.995-54.076,20.655
		c7.57-142.694-93.373-191.85-125.228-203.735c1.304-0.018,2.625-0.049,3.917-0.049C442.69,46.224,497.752,148.605,514.9,192.62z
		 M280.143,47.099c-105.827,63.085-90.735,191.507-90.57,192.823c0.22,1.67,1.708,2.846,3.427,2.644
		c1.67-0.214,2.858-1.75,2.644-3.427c-0.165-1.279-14.963-127.216,89.475-187.872c2.117,8.244,25.998,102.706,21.83,179.836
		c-0.092,1.695,1.206,2.717,2.889,2.717c0.056,0,0.11,0,0.166,0c1.615,0,2.968-0.752,3.054-2.387
		c4.131-76.469-18.923-169.805-21.873-181.397c22.559,7.448,133.257,51.806,126.127,198.312
		c-12.289-10.189-36.285-28.048-61.94-28.048c-18.556,0-34.248,9.486-46.665,28.152c-1.775-1.169-3.568-2.362-5.398-3.593
		c-15.906-10.71-33.929-22.846-54.823-22.846c-18.666,0-36.249,9.7-53.703,29.627c-14.002-7.772-35.527-12.363-58.324-12.363
		c-20.453,0-43.177,3.941-54.872,14.284C86.77,210.282,116.58,59.706,280.143,47.099z M259.292,590.065l-0.012-44.125h80.221
		l-0.037,44.131L259.292,590.065z M359.771,579.189l-14.346,8.066l-0.753-41.383l16.408-6.922v37.216
		C361.08,577.029,360.511,578.449,359.771,579.189z"/>
</g>
</svg>
