<?xml version="1.0" encoding="utf-8"?>
<!-- Generator: Adobe Illustrator 16.0.0, SVG Export Plug-In . SVG Version: 6.00 Build 0)  -->
<!DOCTYPE svg PUBLIC "-//W3C//DTD SVG 1.1//EN" "http://www.w3.org/Graphics/SVG/1.1/DTD/svg11.dtd">
<svg version="1.1" id="Layer_1" xmlns="http://www.w3.org/2000/svg" xmlns:xlink="http://www.w3.org/1999/xlink" x="0px" y="0px"
	 width="612.006px" height="476.581px" viewBox="0 157.708 612.006 476.581" enable-background="new 0 157.708 612.006 476.581"
	 xml:space="preserve">
<g>
	<circle fill="#FFFFFF" cx="258.949" cy="198.26" r="40.551"/>
	<path fill="#FFFFFF" d="M258.949,198.26"/>
</g>
<g>
	<path fill="#FFFFFF" d="M475.928,483.636h-84.719c-23.33,0-24.229,35.899,0,35.899h43.428l-82.59,82.583
		c-18.305,18.306,7.589,44.799,27.038,25.355l81.354-81.579v42.975c-0.129,23.329,36.077,24.234,36.126,0v-84.188
		C496.57,492.117,488.138,483.636,475.928,483.636z"/>
</g>
<path fill="#FFFFFF" d="M540.206,201.699h-94.309c-19.499,0-44.572,7.974-59.529,22.932l-87.271,87.173v-25.545
	c0-54.444-80.288-53.85-80.288,0v104.236h0.159l-75.857,75.852c-7.154,7.154-8.029,7.466-22.075,7.466
	c-0.012,0.013-46.377,0-46.377,0C27.987,473.812,0,515.753,0,551.311c0,35.557,27.987,80.496,78.795,80.496c0,0,63.116,0,82.614,0
	c19.499,0,43.134-7.454,62.632-25.808l241.881-241.147c5.165-4.59,8.029-6.016,16.922-6.016c0,0,33.348,0,59.725,0
	c28.752,0,69.438-32.583,69.438-79.548C612,232.801,571.021,201.81,540.206,201.699z M535.929,318.138h-51.011
	c-21.598,0-31.175,3.03-43.604,15.459L197.59,577.326c-9.853,9.878-22.362,13.789-38.421,13.789H78.795
	c-20.649,0-38.844-17.467-38.844-40.411c0-22.938,17.351-35.789,35.3-35.789h55.141c16.059,0,26.628-4.591,35.802-13.765
	l247.841-247.841c10.196-10.196,20.27-11.475,37.607-11.475h84.836c20.648,0,34.541,23.079,34.541,36.843
	C571.021,292.453,561.161,318.138,535.929,318.138z"/>
</svg>
