<?xml version="1.0" encoding="utf-8"?>
<!-- Generator: Adobe Illustrator 16.0.0, SVG Export Plug-In . SVG Version: 6.00 Build 0)  -->
<!DOCTYPE svg PUBLIC "-//W3C//DTD SVG 1.1//EN" "http://www.w3.org/Graphics/SVG/1.1/DTD/svg11.dtd">
<svg version="1.1" id="Layer_1" xmlns="http://www.w3.org/2000/svg" xmlns:xlink="http://www.w3.org/1999/xlink" x="0px" y="0px"
	 width="531.869px" height="550.8px" viewBox="40.782 44.1 531.869 550.8" enable-background="new 40.782 44.1 531.869 550.8"
	 xml:space="preserve">
<g>
	<path fill="#FFFFFF" d="M222.156,594.9c-81.396,0-147.492-66.097-147.492-148.104c0-16.523,1.224-28.764,2.448-39.78
		c1.836-17.136,3.06-30.6-0.612-55.08C72.216,322.56,57.528,243,48.96,195.876c-3.672-20.196-6.732-35.496-7.344-40.392
		c-3.672-20.808,4.896-36.108,23.256-40.392c7.344-1.836,14.688-1.224,20.808,0.612c-1.224-4.284-1.836-7.344-1.836-8.568
		C79.56,90,88.128,74.088,104.04,68.58c3.672-1.224,7.956-1.836,11.628-1.836c12.852,0,24.48,7.956,29.376,20.196
		c4.284,11.016,58.14,190.944,61.2,204.408c1.836,8.568,4.896,8.568,7.344,8.568c1.224,0,6.12-1.224,7.344-7.956
		c1.836-11.016,54.468-207.468,61.812-225.828C287.64,52.056,299.268,44.1,313.956,44.1c3.672,0,7.344,0.612,11.016,1.224
		c18.36,4.284,26.929,21.42,25.704,36.72c5.508-3.06,12.24-5.508,18.973-5.508c3.06,0,6.119,0.612,8.567,1.224
		c19.584,4.284,31.824,22.032,28.765,42.84c-3.673,25.092-33.66,186.66-36.721,200.124c-2.448,12.24-7.956,55.08-6.731,73.44
		c1.224,25.704,18.359,42.84,42.228,42.84c13.464,0,26.928-7.956,42.84-17.136c18.973-11.628,41.004-24.48,69.156-25.704
		c1.836,0,3.672,0,4.896,0c14.075,0,25.703,3.06,34.271,8.568c8.568,5.508,14.076,13.464,15.3,22.644
		c3.061,18.36-10.403,36.108-33.048,43.452c-14.688,4.896-33.66,19.584-53.855,35.496c-25.093,19.584-51.408,40.392-75.889,47.124
		c-14.688,4.284-29.376,9.18-44.676,14.688C324.36,579.6,280.296,594.9,222.156,594.9z M73.44,128.556c-1.836,0-4.284,0-6.732,0.612
		c-10.404,2.448-14.076,10.404-12.24,23.256c0.612,4.896,3.672,20.808,7.344,40.392c9.18,50.796,23.256,127.296,27.54,156.672
		c3.672,26.316,2.448,41.616,0.612,58.752c-1.224,10.403-1.836,22.644-1.836,38.556c0,73.44,59.976,133.416,133.416,133.416
		c55.08,0,96.696-14.688,137.088-28.764c15.912-5.508,30.601-11.017,45.9-14.688c21.42-6.12,46.512-25.704,70.38-44.676
		c21.42-16.524,41.616-32.436,58.752-37.944c17.748-6.119,24.479-18.359,23.256-27.54c-1.836-11.628-15.3-18.972-34.884-18.972
		c-1.224,0-3.061,0-4.284,0c-24.479,1.224-43.452,12.853-61.812,23.868c-16.524,9.792-32.437,19.584-50.185,19.584
		c-31.824,0-55.08-23.256-56.916-56.304c-1.224-20.196,4.284-63.648,7.344-77.112c3.061-13.464,33.049-174.42,36.108-199.512
		c1.836-13.464-4.896-23.868-17.136-26.316c-1.836-0.612-3.672-0.612-5.508-0.612c-9.792,0-17.137,5.508-20.196,14.688
		c-3.672,11.628-34.884,148.716-50.796,219.708c-0.612,3.672-4.896,6.12-8.568,5.508c-3.672-0.612-6.12-4.896-5.508-8.568
		c1.836-9.18,48.348-226.44,51.408-238.68c1.836-7.956-1.225-20.808-14.076-23.868c-2.448-0.612-4.896-1.224-7.344-1.224
		c-8.568,0-14.688,4.284-18.36,12.24c-7.344,18.36-59.976,214.2-61.2,222.768c-1.836,13.464-12.852,20.196-22.032,20.196
		c-11.016,0-17.748-6.732-21.42-19.584c-2.448-10.404-56.304-191.556-60.588-202.572c-1.836-4.896-7.344-11.016-15.912-11.016
		c-2.448,0-4.896,0.612-6.732,1.224c-9.18,3.06-13.464,11.628-11.016,21.42c3.672,14.076,53.244,222.768,53.856,224.604
		c1.224,3.672-1.224,7.956-5.508,8.568c-3.672,1.224-7.956-1.224-8.568-5.508c-0.612-1.836-43.452-179.928-46.512-192.78
		C87.516,129.78,77.112,128.556,73.44,128.556z"/>
</g>
</svg>
